<?xml version="1.0" encoding="utf-8"?>
<svg viewBox="0 0 14.43 16.716" style="enable-background:new 0 0 14.43 16.716;" xmlns="http://www.w3.org/2000/svg">
  <defs>
    <linearGradient gradientUnits="userSpaceOnUse" x1="7.215" y1="0" x2="7.215" y2="16.716" id="gradient-0">
      <stop offset="0" style="stop-color: rgb(7.451% 92.549% 68.235%)"/>
      <stop offset="1" style="stop-color: rgb(0% 54.049% 36.467%)"/>
    </linearGradient>
  </defs>
  <g id="Quixel" transform="matrix(1, 0, 0, 1, -8.881784197001252e-16, 0)">
    <path d="M7.256,0c2.393,1.371,4.783,2.771,7.172,4.159c-0.003,1.392-0.002,2.784-0.006,4.176c-1.193,0.701-2.393,1.394-3.576,2.108&#10;&#9;&#9;c1.197,0.682,2.392,1.373,3.576,2.074c0.003,1.393,0.012,2.787,0.004,4.18c-1.201-0.689-2.394-1.392-3.594-2.082&#10;&#9;&#9;c-1.195,0.697-2.385,1.404-3.58,2.101c-2.401-1.415-4.823-2.792-7.248-4.165C-0.002,9.766,0,6.981,0.003,4.195&#10;&#9;&#9;C2.422,2.798,4.845,1.409,7.256,0z M7.256,4.186C6.044,4.858,4.866,5.589,3.658,6.27c0.007,1.395-0.032,2.793,0.007,4.185&#10;&#9;&#9;c1.207,0.669,2.389,1.386,3.588,2.07c1.191-0.694,2.372-1.405,3.57-2.086c-0.004-1.395,0.005-2.791-0.001-4.186&#10;&#9;&#9;C9.634,5.565,8.456,4.854,7.256,4.186z" style="fill-rule: nonzero; paint-order: fill; stroke-linecap: round; fill: url('#gradient-0');"/>
  </g>
  <g id="Layer_1" transform="matrix(1, 0, 0, 1, -8.881784197001252e-16, 0)"/>
</svg>